<svg width="16" height="16" viewBox="0 0 16 16" fill="none" xmlns="http://www.w3.org/2000/svg">
<path d="M16 8C16 3.58853 12.4115 0 8 0C3.58853 0 0 3.58853 0 8C0 12.4115 3.58916 16 8 16C12.4108 16 16 12.4115 16 8ZM1.23934 8C1.23934 4.27266 4.27203 1.23934 8 1.23934C11.728 1.23934 14.7607 4.27266 14.7607 8C14.7607 11.728 11.728 14.7607 8 14.7607C4.27203 14.7607 1.23934 11.7273 1.23934 8Z" fill="black"/>
<path d="M7.14488 11.5383L10.2433 8.43992C10.4837 8.19823 10.4837 7.80785 10.2433 7.56617L7.14488 4.46778C6.91313 4.26888 6.57044 4.26888 6.33869 4.46778C6.07904 4.69025 6.04869 5.08188 6.27116 5.34154L8.92954 7.99995L6.27113 10.6645C6.03069 10.9062 6.03069 11.2966 6.27113 11.5383C6.51282 11.7787 6.90322 11.7787 7.14488 11.5383Z" fill="black"/>
</svg>
