<svg width="50" height="51" viewBox="0 0 50 51" fill="none" xmlns="http://www.w3.org/2000/svg">
<path d="M50 25.5608C50 39.3466 38.7858 50.5608 25 50.5608C11.2142 50.5608 0 39.3466 0 25.5608C0 11.775 11.2161 0.560791 25 0.560791C38.7839 0.560791 50 11.775 50 25.5608ZM3.87295 25.5608C3.87295 37.2087 13.3501 46.6878 25 46.6878C36.6499 46.6878 46.1271 37.2087 46.1271 25.5608C46.1271 13.9109 36.6499 4.43374 25 4.43374C13.3501 4.43374 3.87295 13.9128 3.87295 25.5608Z" fill="#C8C489"/>
<path d="M22.3262 14.4877L32.0087 24.1702C32.7601 24.9255 32.7601 26.1454 32.0087 26.9007L22.3262 36.5831C21.602 37.2047 20.5311 37.2047 19.8069 36.5831C18.9955 35.8879 18.9006 34.6641 19.5959 33.8526L27.9033 25.5451L19.5958 17.2182C18.8444 16.4629 18.8444 15.243 19.5958 14.4877C20.351 13.7363 21.5711 13.7363 22.3262 14.4877Z" fill="#C8C489"/>
</svg>
