<svg width="50" height="51" viewBox="0 0 50 51" fill="none" xmlns="http://www.w3.org/2000/svg">
<path d="M0 25.5608C0 39.3466 11.2142 50.5608 25 50.5608C38.7858 50.5608 50 39.3466 50 25.5608C50 11.775 38.7839 0.560791 25 0.560791C11.2161 0.560791 0 11.775 0 25.5608ZM46.1271 25.5608C46.1271 37.2087 36.6499 46.6878 25 46.6878C13.3501 46.6878 3.87295 37.2087 3.87295 25.5608C3.87295 13.9109 13.3501 4.43374 25 4.43374C36.6499 4.43374 46.1271 13.9128 46.1271 25.5608Z" fill="#C8C489"/>
<path d="M27.6737 14.4877L17.9913 24.1702C17.2399 24.9255 17.2399 26.1454 17.9913 26.9007L27.6737 36.5831C28.3979 37.2047 29.4688 37.2047 30.193 36.5831C31.0044 35.8879 31.0993 34.6641 30.4041 33.8526L22.0966 25.5451L30.4042 17.2182C31.1555 16.4629 31.1555 15.243 30.4042 14.4877C29.6489 13.7363 28.4289 13.7363 27.6737 14.4877Z" fill="#C8C489"/>
</svg>
