<svg width="18" height="18" viewBox="0 0 18 18" fill="none" xmlns="http://www.w3.org/2000/svg">
<path d="M15.7726 7.9373L4.89522 7.93538L4.43928 6.36573C4.37132 6.13177 4.18294 5.94687 3.94766 5.88322L2.35203 5.45168C2.29191 5.43549 2.2301 5.42725 2.16829 5.42725C1.85164 5.42725 1.57269 5.64097 1.48993 5.94687C1.4409 6.12809 1.46545 6.31772 1.55897 6.4805C1.65249 6.64333 1.80381 6.76001 1.98507 6.809L3.19932 7.13735L5.66439 16.0286C5.31326 16.2018 5.08563 16.5608 5.08563 16.9605C5.08563 17.5336 5.55191 17.9999 6.12509 17.9999C6.69827 17.9999 7.16459 17.5336 7.16459 16.9605C7.16459 16.9469 7.16433 16.9335 7.16381 16.92H12.1819C12.1813 16.9335 12.1811 16.9469 12.1811 16.9605C12.1811 17.5336 12.6474 17.9999 13.2206 17.9999C13.7937 17.9999 14.2601 17.5336 14.2601 16.9605C14.2601 16.4337 13.8595 15.992 13.347 15.929C12.0998 15.7275 7.0093 15.4814 7.0093 15.4814L6.84209 14.8271H13.1935C13.5182 14.8271 13.8069 14.6089 13.8956 14.2965L15.2682 9.46144H15.7726C16.1935 9.46144 16.5347 9.12017 16.5347 8.69931C16.5347 8.27846 16.1936 7.9373 15.7726 7.9373ZM7.68275 13.2091H6.49216C6.45962 13.2085 6.41183 13.216 6.39002 13.1394C6.36239 13.0422 6.3236 12.9086 6.3236 12.9086L5.39055 9.62164C5.38597 9.60568 5.38927 9.5881 5.39928 9.57487C5.40936 9.56152 5.42529 9.55354 5.44201 9.55354H6.88899C6.91417 9.55354 6.93565 9.57074 6.94112 9.59537L7.73032 13.1292L7.73317 13.14C7.73467 13.1449 7.73541 13.1502 7.73541 13.1556C7.73545 13.1848 7.71188 13.2086 7.68275 13.2091ZM10.7211 9.61861L10.0781 13.1673C10.0726 13.1919 10.0511 13.2091 10.0259 13.2091H9.12789C9.10259 13.2091 9.08115 13.1919 9.0756 13.1672L8.43259 9.61853C8.42903 9.60271 8.43285 9.58634 8.44308 9.57352C8.45324 9.56077 8.4685 9.55346 8.48477 9.55346H10.6689C10.6853 9.55346 10.7004 9.56077 10.7106 9.57359C10.7209 9.58634 10.7246 9.60272 10.7211 9.61861ZM13.7632 9.62161L12.7558 13.1701C12.7493 13.193 12.7281 13.2091 12.7044 13.2091H11.4723C11.4559 13.2091 11.4408 13.2018 11.4306 13.1891C11.4204 13.1763 11.4166 13.1598 11.4201 13.1439L12.2126 9.59533C12.218 9.57108 12.2399 9.55346 12.2648 9.55346H13.7118C13.7285 9.55346 13.7444 9.56145 13.7544 9.57475C13.7644 9.58806 13.7677 9.6056 13.7632 9.62161Z" fill="white"/>
<path d="M9.48857 6.96622C9.63595 7.22099 10.016 7.22035 10.1628 6.96577L12.0246 4.1667C12.0995 4.03671 12.0924 3.87122 12.0066 3.74843C11.9251 3.63197 11.7989 3.58276 11.6609 3.58291C11.5244 3.58298 11.3878 3.58298 11.2514 3.58306L10.6052 3.58355V0.781134C10.6052 0.349674 10.2555 0 9.824 0C9.39254 0 9.04279 0.349674 9.04279 0.781134V3.58448L8.56013 3.58482L7.95958 3.58531C7.66576 3.58538 7.47542 3.91429 7.62288 4.16955L9.48857 6.96622Z" fill="white"/>
</svg>
