<svg width="34" height="34" viewBox="0 0 34 34" fill="none" xmlns="http://www.w3.org/2000/svg">
<g clip-path="url(#clip0)">
<path d="M15.9987 29.5753C15.9987 31.0944 14.7673 32.3258 13.2482 32.3258C11.7291 32.3258 10.4977 31.0944 10.4977 29.5753C10.4977 28.0562 11.7291 26.8248 13.2482 26.8248C14.7673 26.8248 15.9987 28.0562 15.9987 29.5753ZM24.3853 26.8248C22.8662 26.8248 21.6347 28.0562 21.6347 29.5753C21.6347 31.0944 22.8662 32.3259 24.3853 32.3259C25.9044 32.3259 27.1358 31.0944 27.1358 29.5753C27.1358 28.0562 25.9044 26.8248 24.3853 26.8248ZM32.9232 13.9126L29.5387 23.972C29.5387 23.972 29.2585 25.4648 27.8311 25.4648C26.4037 25.4648 12.4445 25.4648 10.741 25.4648C9.03751 25.4648 8.96593 23.5937 8.96593 23.5937C8.96593 23.5937 7.14998 10.1212 7.05999 9.30726C6.97 8.49334 5.92911 7.89007 5.92911 7.89007L1.45054 5.79804C-1.00142 4.51582 0.113104 2.07612 1.45054 2.63646C7.12952 5.31541 9.76758 6.63444 9.93732 7.68966C10.1091 8.74692 10.4077 11.293 10.4077 11.293V11.3093C10.4424 11.2991 10.467 11.293 10.467 11.293C10.467 11.293 27.8822 11.293 31.3996 11.293C33.9273 11.293 32.9232 13.9167 32.9232 13.9126ZM28.0274 19.5139L27.9927 19.5159H11.424L11.7655 22.2235H27.2217L28.0274 19.5139ZM29.6409 14.0537H10.739L11.103 16.9474C14.7288 16.9474 25.3464 16.9474 28.7861 16.9474L29.6409 14.0537Z" fill="#C9C9C9"/>
</g>
<defs>
<clipPath id="clip0">
<rect width="33.12" height="33.12" fill="white" transform="translate(0 0.880005)"/>
</clipPath>
</defs>
</svg>
