<svg width="216" height="216" viewBox="0 0 216 216" fill="none" xmlns="http://www.w3.org/2000/svg">
<path d="M143.181 109.107L216 155.142V61.1281L143.181 109.107Z" fill="white"/>
<path d="M0 61.1281V155.142L72.819 109.107L0 61.1281Z" fill="white"/>
<path d="M202.5 33.75H13.5C6.7635 33.75 1.4175 38.772 0.404999 45.2385L108 116.127L215.595 45.2385C214.583 38.772 209.237 33.75 202.5 33.75Z" fill="white"/>
<path d="M130.815 117.261L111.713 129.843C110.579 130.586 109.296 130.95 108 130.95C106.704 130.95 105.422 130.586 104.288 129.843L85.185 117.248L0.432007 170.856C1.47151 177.269 6.79051 182.25 13.5 182.25H202.5C209.21 182.25 214.529 177.269 215.568 170.856L130.815 117.261Z" fill="white"/>
</svg>
