<svg width="60" height="60" viewBox="0 0 60 60" fill="none" xmlns="http://www.w3.org/2000/svg">
<g clip-path="url(#clip0)">
<path d="M30 12.1172C18.5364 12.1172 8.14053 18.3891 0.469469 28.5762C-0.15649 29.4108 -0.15649 30.5768 0.469469 31.4114C8.14053 41.6109 18.5364 47.8828 30 47.8828C41.4636 47.8828 51.8595 41.6109 59.5305 31.4237C60.1565 30.5891 60.1565 29.4231 59.5305 28.5885C51.8595 18.3891 41.4636 12.1172 30 12.1172ZM30.8223 42.5928C23.2126 43.0715 16.9285 36.7996 17.4072 29.1776C17.7999 22.8935 22.8935 17.7999 29.1777 17.4072C36.7874 16.9285 43.0715 23.2003 42.5928 30.8223C42.1878 37.0942 37.0942 42.1878 30.8223 42.5928ZM30.4419 36.7751C26.3424 37.0328 22.9549 33.6575 23.2249 29.5581C23.4336 26.1706 26.1829 23.4335 29.5704 23.2126C33.6698 22.9549 37.0574 26.3301 36.7874 30.4296C36.5664 33.8294 33.8171 36.5664 30.4419 36.7751Z" fill="#0080C1"/>
</g>
<defs>
<clipPath id="clip0">
<rect width="60" height="60" fill="white"/>
</clipPath>
</defs>
</svg>
