<svg width="72" height="72" viewBox="0 0 72 72" fill="none" xmlns="http://www.w3.org/2000/svg">
<g clip-path="url(#clip0)">
<path d="M36 14.5406C22.2436 14.5406 9.76864 22.0669 0.563363 34.2915C-0.187788 35.293 -0.187788 36.6922 0.563363 37.6938C9.76864 49.9331 22.2436 57.4593 36 57.4593C49.7564 57.4593 62.2314 49.9331 71.4366 37.7085C72.1878 36.707 72.1878 35.3078 71.4366 34.3062C62.2314 22.0669 49.7564 14.5406 36 14.5406ZM36.9868 51.1114C27.8552 51.6858 20.3142 44.1596 20.8886 35.0132C21.3599 27.4722 27.4722 21.3599 35.0132 20.8886C44.1448 20.3142 51.6858 27.8404 51.1114 36.9868C50.6253 44.513 44.513 50.6253 36.9868 51.1114ZM36.5302 44.1301C31.6109 44.4394 27.5459 40.3891 27.8699 35.4698C28.1203 31.4047 31.4195 28.1203 35.4845 27.8552C40.4038 27.5459 44.4689 31.5962 44.1448 36.5155C43.8797 40.5953 40.5805 43.8797 36.5302 44.1301Z" fill="#C8C489"/>
</g>
<defs>
<clipPath id="clip0">
<rect width="72" height="72" fill="white"/>
</clipPath>
</defs>
</svg>
