<svg width="22" height="22" viewBox="0 0 22 22" fill="none" xmlns="http://www.w3.org/2000/svg">
<g clip-path="url(#clip0)">
<path d="M16.9636 8.23786C13.2254 4.10917 12.3763 0.898071 12.3763 0.898071C12.3763 0.898071 11.7288 1.18699 11 1.84895L10.0826 12.3665L11 21.3549H11.0001C15.509 21.3549 19.1642 17.6997 19.1642 13.1908C19.1641 11.3284 18.124 9.5195 16.9636 8.23786Z" fill="#FF6200"/>
<path d="M9.62385 3.65052C9.15624 4.58579 9.0461 5.64023 9.05057 6.4494C9.05487 7.23436 8.50189 7.9118 7.7322 8.06576C7.19444 8.17332 6.63854 8.00499 6.25075 7.6172L5.4952 6.86166C5.4952 6.86166 4.37514 8.40607 4.1832 8.69663C3.32104 10.0017 2.82363 11.5689 2.83618 13.253C2.86964 17.7507 6.50225 21.3549 11.0001 21.3549V1.84897C10.5233 2.28196 10.0119 2.87451 9.62385 3.65052Z" fill="#FD7D21"/>
<path d="M17.4418 7.80486C15.5766 5.74471 14.4681 3.93116 13.8665 2.77251C13.2151 1.51754 13.0016 0.739328 13 0.733136L12.806 0L12.1135 0.308917C12.074 0.326507 11.5999 0.542616 11 1.00726L10.5413 1.81553L11 2.76671C11.3585 2.36455 11.7283 2.06394 12.0257 1.85583C12.5109 3.08995 13.7408 5.6396 16.4854 8.67089C17.0968 9.34618 18.519 11.1384 18.519 13.1908C18.519 17.3368 15.146 20.7098 11.0001 20.7098H11L10.5413 21.5413L11 22H11.0001C15.8574 22 19.8092 18.0482 19.8092 13.1908C19.8092 11.4296 18.9464 9.46655 17.4418 7.80486Z" fill="#FFB62D"/>
<path d="M5.69835 18.5326C4.28352 17.1286 3.49615 15.2519 3.48123 13.2481C3.47005 11.7482 3.89891 10.2972 4.72141 9.0522C4.82183 8.90021 5.22468 8.3382 5.57437 7.85321L5.79452 8.07336C6.33606 8.61491 7.10751 8.84856 7.85867 8.69834C8.92902 8.48425 9.70159 7.53698 9.69561 6.44586C9.69187 5.77061 9.77651 4.78761 10.2008 3.939C10.4309 3.47874 10.7118 3.09 11 2.76672V1.00723C10.3682 1.49669 9.59678 2.26195 9.04677 3.36198C8.50854 4.43848 8.4009 5.63703 8.40541 6.45287C8.40804 6.92767 8.07164 7.33993 7.60557 7.43312C7.27881 7.49841 6.94267 7.39683 6.70682 7.16098L5.41675 5.8709L4.97296 6.48285C4.9269 6.54637 3.84236 8.0421 3.64491 8.34095C2.68075 9.80047 2.178 11.5007 2.19103 13.2577C2.20849 15.6044 3.13133 17.8029 4.78954 19.4484C6.44762 21.0938 8.65322 22 11 22V20.7098C8.99598 20.7098 7.11315 19.9366 5.69835 18.5326Z" fill="#FDCB02"/>
<path d="M11 8.86118C10.9953 8.86118 10.9905 8.86135 10.9857 8.86135L9.91068 13.9073L10.9857 18.9532C10.9905 18.9532 10.9953 18.9534 11 18.9534C13.7869 18.9534 16.0461 16.6942 16.0461 13.9073C16.0461 11.1204 13.7869 8.86118 11 8.86118Z" fill="#ED3800"/>
<path d="M5.95389 13.9073C5.95389 16.6894 8.20538 18.9454 10.9857 18.9532V8.86133C8.20542 8.86907 5.95389 11.1252 5.95389 13.9073Z" fill="#FF4B00"/>
<path d="M13.7377 10.9453H12.3075L10.9857 12.8811L10.5413 14.6602L10.9857 14.9755L13.7377 10.9453Z" fill="#D9E7EC"/>
<path d="M13.1707 13.6534C12.2737 13.6534 11.5966 14.2543 11.5966 15.3037C11.5966 16.3615 12.2736 16.9539 13.1707 16.9539C14.0678 16.9539 14.7448 16.3615 14.7448 15.3037C14.7448 14.2543 14.0678 13.6534 13.1707 13.6534ZM13.1707 16.0399C12.9846 16.0399 12.7984 15.8706 12.7984 15.3036C12.7984 14.7366 12.9846 14.5673 13.1707 14.5673C13.3569 14.5673 13.5431 14.7366 13.5431 15.3036C13.5431 15.8706 13.3569 16.0399 13.1707 16.0399Z" fill="#D9E7EC"/>
<path d="M9.69252 16.8692L10.9857 14.9755V12.881L8.26233 16.8692H9.69252Z" fill="#FAFCFD"/>
<path d="M10.4034 12.5109C10.4034 11.4616 9.7264 10.8607 8.82932 10.8607C7.93225 10.8607 7.25523 11.4615 7.25523 12.5109C7.25523 13.5688 7.93225 14.1612 8.82932 14.1612C9.7264 14.1612 10.4034 13.5688 10.4034 12.5109ZM8.45697 12.5109C8.45697 11.9439 8.64315 11.7747 8.82932 11.7747C9.0155 11.7747 9.20168 11.9439 9.20168 12.5109C9.20168 13.0779 9.0155 13.2472 8.82932 13.2472C8.64315 13.2472 8.45697 13.0779 8.45697 12.5109Z" fill="#FAFCFD"/>
</g>
<defs>
<clipPath id="clip0">
<rect width="22" height="22" fill="white"/>
</clipPath>
</defs>
</svg>
