<svg width="19" height="19" viewBox="0 0 19 19" fill="none" xmlns="http://www.w3.org/2000/svg">
<g clip-path="url(#clip0)">
<path d="M18.9814 5.58605C18.9369 4.57651 18.7737 3.88246 18.5398 3.28105C18.2985 2.64267 17.9274 2.07114 17.4411 1.59601C16.966 1.1135 16.3906 0.738563 15.7597 0.501074C15.1548 0.267211 14.4644 0.103956 13.4548 0.0594446C12.4377 0.011164 12.1148 0 9.53524 0C6.95563 0 6.63275 0.011164 5.61944 0.0556749C4.60989 0.100186 3.91584 0.263586 3.31458 0.497305C2.67606 0.738563 2.10452 1.10973 1.6294 1.59601C1.14688 2.07114 0.772094 2.64644 0.53446 3.27743C0.300597 3.88246 0.137342 4.57274 0.0928308 5.58228C0.0445502 6.59936 0.0333862 6.92225 0.0333862 9.50186C0.0333862 12.0815 0.0445502 12.4043 0.0890611 13.4177C0.133572 14.4272 0.296972 15.1213 0.530836 15.7227C0.772094 16.361 1.14688 16.9326 1.6294 17.4077C2.10452 17.8902 2.67983 18.2651 3.31081 18.5026C3.91584 18.7365 4.60612 18.8998 5.61581 18.9443C6.62898 18.9889 6.95201 18.9999 9.53161 18.9999C12.1112 18.9999 12.4341 18.9889 13.4474 18.9443C14.457 18.8998 15.151 18.7365 15.7523 18.5026C17.0292 18.009 18.0387 16.9994 18.5324 15.7227C18.7661 15.1176 18.9295 14.4272 18.974 13.4177C19.0185 12.4043 19.0297 12.0815 19.0297 9.50186C19.0297 6.92225 19.0259 6.59936 18.9814 5.58605ZM17.2704 13.3434C17.2295 14.2713 17.0737 14.7724 16.9438 15.1065C16.6245 15.9342 15.9676 16.5911 15.1398 16.9104C14.8058 17.0403 14.3011 17.1962 13.3768 17.2369C12.3747 17.2816 12.0741 17.2926 9.53901 17.2926C7.00392 17.2926 6.69959 17.2816 5.70106 17.2369C4.77315 17.1962 4.27207 17.0403 3.93802 16.9104C3.52612 16.7582 3.15118 16.5169 2.84685 16.2014C2.53136 15.8933 2.29011 15.5221 2.13787 15.1102C2.00796 14.7762 1.8521 14.2713 1.81136 13.3472C1.7667 12.345 1.75568 12.0443 1.75568 9.50925C1.75568 6.97416 1.7667 6.66983 1.81136 5.67145C1.8521 4.74353 2.00796 4.24246 2.13787 3.90841C2.29011 3.49636 2.53136 3.12157 2.85062 2.81709C3.15858 2.5016 3.52974 2.26034 3.94179 2.10825C4.27584 1.97835 4.78069 1.82248 5.70483 1.7816C6.70698 1.73709 7.00768 1.72592 9.54263 1.72592C12.0815 1.72592 12.3821 1.73709 13.3806 1.7816C14.3085 1.82248 14.8096 1.97835 15.1436 2.10825C15.5555 2.26034 15.9305 2.5016 16.2348 2.81709C16.5503 3.12519 16.7915 3.49636 16.9438 3.90841C17.0737 4.24246 17.2295 4.74716 17.2704 5.67145C17.3149 6.6736 17.3261 6.97416 17.3261 9.50925C17.3261 12.0443 17.3149 12.3413 17.2704 13.3434Z" fill="black"/>
<path d="M9.53522 4.62109C6.84064 4.62109 4.65439 6.8072 4.65439 9.50193C4.65439 12.1967 6.84064 14.3828 9.53522 14.3828C12.2299 14.3828 14.4161 12.1967 14.4161 9.50193C14.4161 6.8072 12.2299 4.62109 9.53522 4.62109ZM9.53522 12.668C7.78712 12.668 6.36915 11.2502 6.36915 9.50193C6.36915 7.75368 7.78712 6.33585 9.53522 6.33585C11.2835 6.33585 12.7013 7.75368 12.7013 9.50193C12.7013 11.2502 11.2835 12.668 9.53522 12.668Z" fill="black"/>
<path d="M15.7486 4.42803C15.7486 5.05727 15.2384 5.56748 14.609 5.56748C13.9798 5.56748 13.4696 5.05727 13.4696 4.42803C13.4696 3.79864 13.9798 3.28857 14.609 3.28857C15.2384 3.28857 15.7486 3.79864 15.7486 4.42803Z" fill="black"/>
</g>
<defs>
<clipPath id="clip0">
<rect width="19" height="19" fill="white"/>
</clipPath>
</defs>
</svg>
