<svg width="17" height="17" viewBox="0 0 17 17" fill="none" xmlns="http://www.w3.org/2000/svg">
<path d="M1.28788 9.27283H10.7556L8.46873 11.5597C8.16696 11.8615 8.16696 12.3507 8.46873 12.6525C8.77046 12.9543 9.25975 12.9543 9.56153 12.6525L13.1675 9.04652C13.4693 8.7448 13.4693 8.25551 13.1675 7.95373L9.56153 4.34757C9.41064 4.19668 9.21292 4.12121 9.01516 4.12121C8.81744 4.12126 8.61962 4.19668 8.46879 4.34752C8.16706 4.64929 8.16701 5.13853 8.46879 5.44031L10.7557 7.72738H1.28788C0.861132 7.72738 0.515156 8.07335 0.515156 8.5001C0.515156 8.92685 0.861132 9.27283 1.28788 9.27283Z" fill="#C8C489"/>
<path d="M9.01515 1.54545H14.9394V15.4545H9.01515C8.5884 15.4545 8.24242 15.8005 8.24242 16.2273C8.24242 16.654 8.5884 17 9.01515 17H15.7121C16.1389 17 16.4848 16.654 16.4848 16.2273V0.772728C16.4848 0.345976 16.1389 0 15.7121 0H9.01515C8.5884 0 8.24242 0.345976 8.24242 0.772728C8.24242 1.19948 8.5884 1.54545 9.01515 1.54545Z" fill="#C8C489"/>
</svg>
