<svg width="21" height="22" viewBox="0 0 21 22" fill="none" xmlns="http://www.w3.org/2000/svg">
<g clip-path="url(#clip0)">
<path d="M20.6336 16.567C20.6415 16.5654 20.6492 16.5631 20.657 16.561C20.6636 16.5593 20.6703 16.5578 20.6768 16.5557C20.6844 16.5533 20.6918 16.5503 20.6992 16.5475C20.7058 16.545 20.7124 16.5428 20.7189 16.5399C20.7259 16.5369 20.7326 16.5333 20.7394 16.5299C20.746 16.5266 20.7528 16.5236 20.7593 16.5199C20.7658 16.5163 20.7719 16.5121 20.7782 16.5082C20.7847 16.5041 20.7913 16.5003 20.7976 16.4958C20.8043 16.4911 20.8106 16.4859 20.8171 16.4808C20.8225 16.4766 20.8281 16.4726 20.8335 16.468C20.8433 16.4595 20.8526 16.4505 20.8618 16.4412C20.8634 16.4395 20.8652 16.4381 20.8668 16.4364C20.8685 16.4346 20.87 16.4327 20.8716 16.4308C20.8803 16.4214 20.8888 16.4117 20.8969 16.4016C20.9015 16.3956 20.9056 16.3893 20.91 16.3832C20.9145 16.3768 20.9192 16.3706 20.9234 16.364C20.9279 16.357 20.9318 16.3497 20.936 16.3424C20.9394 16.3363 20.9431 16.3303 20.9463 16.324C20.9501 16.3167 20.9533 16.3091 20.9566 16.3017C20.9596 16.2951 20.9627 16.2885 20.9655 16.2817C20.9684 16.2744 20.9707 16.267 20.9732 16.2595C20.9757 16.2523 20.9784 16.2451 20.9805 16.2377C20.9827 16.2302 20.9843 16.2226 20.9861 16.2149C20.9879 16.2074 20.9899 16.2 20.9913 16.1925C20.993 16.1835 20.9941 16.1745 20.9953 16.1654C20.9961 16.1591 20.9973 16.1528 20.9979 16.1463C20.9994 16.1305 21.0002 16.1147 21.0002 16.0988V5.90087C21.0002 5.63732 20.7964 5.42377 20.5448 5.42377H6.19903C6.19502 5.42377 6.19113 5.42428 6.18713 5.4244C6.17844 5.42466 6.16982 5.42504 6.1612 5.4258C6.15434 5.42638 6.14754 5.4272 6.14073 5.42816C6.13296 5.42917 6.12525 5.43038 6.11754 5.43185C6.11031 5.43318 6.10315 5.43477 6.09604 5.43649C6.08882 5.43827 6.08159 5.44018 6.07443 5.44234C6.06732 5.44444 6.06034 5.44673 6.05342 5.44915C6.04631 5.45169 6.03921 5.45437 6.03222 5.45729C6.0256 5.46003 6.01911 5.46283 6.01267 5.46588C6.00551 5.46925 5.9984 5.47288 5.99136 5.47663C5.98535 5.47988 5.97946 5.48318 5.97363 5.48668C5.96658 5.49088 5.95966 5.49533 5.9528 5.49991C5.94715 5.50373 5.94162 5.50767 5.93616 5.51168C5.92972 5.51645 5.92335 5.52141 5.91709 5.52663C5.91139 5.5314 5.9058 5.5363 5.90027 5.54133C5.89481 5.54635 5.8894 5.55138 5.88412 5.55672C5.87811 5.56276 5.87234 5.56906 5.86663 5.57542C5.86378 5.5786 5.86074 5.5814 5.85801 5.58465C5.85637 5.58656 5.85509 5.58866 5.85352 5.59056C5.84781 5.5975 5.84246 5.60475 5.83712 5.61207C5.83323 5.61741 5.82923 5.62275 5.82558 5.62822C5.82085 5.63535 5.81648 5.64266 5.8121 5.65004C5.80852 5.65609 5.80482 5.66207 5.80154 5.66824C5.79771 5.67536 5.79437 5.68268 5.79091 5.68999C5.78775 5.69667 5.78447 5.70335 5.78162 5.71016C5.77865 5.71735 5.77603 5.72479 5.77342 5.73211C5.77081 5.73929 5.76814 5.74642 5.76589 5.75367C5.76365 5.76099 5.76182 5.76843 5.75988 5.77587C5.75794 5.78351 5.75587 5.79108 5.75423 5.79877C5.75272 5.80596 5.75168 5.81328 5.75047 5.82053C5.74913 5.8288 5.7478 5.83707 5.74683 5.84534C5.74604 5.85221 5.74567 5.85921 5.74519 5.8662C5.74458 5.87511 5.74403 5.88402 5.74391 5.89299C5.74385 5.89559 5.74355 5.89814 5.74355 5.90075V8.84304C5.74355 9.10659 5.94739 9.32014 6.19897 9.32014C6.45054 9.32014 6.65439 9.10659 6.65439 8.84304V6.96037L10.7034 10.716C10.6823 10.7316 10.662 10.7488 10.643 10.7686L6.65433 14.9472V11.8118C6.65433 11.5482 6.45048 11.3347 6.19891 11.3347C5.94733 11.3347 5.74349 11.5482 5.74349 11.8118V12.3948H3.39048C3.1389 12.3948 2.93506 12.6083 2.93506 12.8719C2.93506 13.1354 3.1389 13.349 3.39048 13.349H5.74349V16.0991C5.74349 16.3626 5.94733 16.5762 6.19891 16.5762H20.5447C20.5597 16.5762 20.5747 16.5754 20.5896 16.5738C20.5966 16.5731 20.6033 16.5717 20.6102 16.5707C20.6181 16.5696 20.6258 16.5686 20.6336 16.567ZM20.0893 14.9473L16.1005 10.7686C16.098 10.766 16.0953 10.7637 16.0926 10.7612L19.0913 8.09595C19.2831 7.92546 19.3066 7.62444 19.1439 7.42348C18.9813 7.22265 18.694 7.19784 18.502 7.36839L13.3782 11.9225L7.40037 6.37805H20.0893V14.9473ZM11.2872 11.4435C11.3197 11.4094 11.346 11.3715 11.3666 11.3312L13.0699 12.911C13.156 12.9909 13.2639 13.031 13.3718 13.031C13.4767 13.031 13.5814 12.9932 13.6665 12.9177L15.4024 11.3748C15.4182 11.3989 15.436 11.422 15.4565 11.4435L19.4452 15.6221H7.29848L11.2872 11.4435Z" fill="#2682EB"/>
<path d="M0.455421 10.8574H8.14699C8.39857 10.8574 8.60241 10.6439 8.60241 10.3803C8.60241 10.1168 8.39857 9.90323 8.14699 9.90323H0.455421C0.203846 9.90323 0 10.1168 0 10.3803C0 10.6439 0.203846 10.8574 0.455421 10.8574Z" fill="#2682EB"/>
<path d="M1.2523 8.2282H4.7059C4.95748 8.2282 5.16132 8.01465 5.16132 7.75109C5.16132 7.48754 4.95748 7.27399 4.7059 7.27399H1.2523C1.00072 7.27399 0.796875 7.48754 0.796875 7.75109C0.796875 8.01465 1.00072 8.2282 1.2523 8.2282Z" fill="#2682EB"/>
<path d="M3.79517 14.4093H0.455421C0.203846 14.4093 0 14.6229 0 14.8864C0 15.15 0.203846 15.3635 0.455421 15.3635H3.79517C4.04675 15.3635 4.25059 15.15 4.25059 14.8864C4.25059 14.6229 4.04675 14.4093 3.79517 14.4093Z" fill="#2682EB"/>
</g>
<defs>
<clipPath id="clip0">
<rect width="21" height="22" fill="white"/>
</clipPath>
</defs>
</svg>
