<svg width="23" height="23" viewBox="0 0 23 23" fill="none" xmlns="http://www.w3.org/2000/svg">
<path d="M11.5 0C6.7439 0 2.875 3.86935 2.875 8.625C2.875 14.988 10.8327 22.5508 11.1715 22.8699C11.2642 22.9565 11.3821 23 11.5 23C11.6179 23 11.7358 22.9565 11.8285 22.8699C12.1673 22.5508 20.125 14.988 20.125 8.625C20.125 3.86935 16.2561 0 11.5 0ZM11.5 13.4167C8.85801 13.4167 6.70832 11.267 6.70832 8.625C6.70832 5.98301 8.85805 3.83332 11.5 3.83332C14.1419 3.83332 16.2917 5.98305 16.2917 8.625C16.2917 11.2669 14.142 13.4167 11.5 13.4167Z" fill="#2682EB"/>
</svg>
