<svg width="14" height="14" viewBox="0 0 14 14" fill="none" xmlns="http://www.w3.org/2000/svg">
<path d="M0.954668 11.7725H3.18198V13.6819C3.18198 13.7748 3.2117 13.8508 3.2715 13.9103C3.33114 13.9701 3.40738 14 3.50025 14H5.16068C5.24685 14 5.32142 13.9701 5.3844 13.9103C5.44738 13.8508 5.47878 13.7747 5.47878 13.6819V11.7725H10.5001C10.5927 11.7725 10.669 11.743 10.7288 11.6832C10.7886 11.6234 10.8183 11.5473 10.8183 11.4544V10.1816C10.8183 10.0893 10.7886 10.0127 10.7288 9.95322C10.6692 9.89339 10.5927 9.86348 10.5001 9.86348H5.47862V8.69013H8.85929C10.185 8.69013 11.267 8.28618 12.1057 7.47713C12.9442 6.66893 13.3636 5.62492 13.3636 4.34507C13.3636 3.06606 12.9442 2.02203 12.1057 1.213C11.2671 0.404774 10.185 0 8.85929 0H3.50009C3.40719 0 3.33111 0.0298867 3.27134 0.0893581C3.2117 0.149159 3.18182 0.225728 3.18182 0.318105V6.57252H0.954668C0.861797 6.57252 0.785694 6.60394 0.725921 6.6669C0.666312 6.72988 0.636398 6.80445 0.636398 6.89059V8.37197C0.636398 8.46487 0.66612 8.54097 0.725921 8.60075C0.785722 8.66058 0.861632 8.69011 0.954668 8.69011H3.18198V9.86345H0.954668C0.861797 9.86345 0.785694 9.89337 0.725921 9.9532C0.666312 10.0126 0.636398 10.0891 0.636398 10.1816V11.4544C0.636398 11.5473 0.66612 11.6234 0.725921 11.6831C0.785694 11.743 0.86177 11.7725 0.954668 11.7725ZM5.47862 2.11811H8.66043C9.363 2.11811 9.92967 2.32353 10.3607 2.73451C10.7915 3.14551 11.007 3.68262 11.007 4.34523C11.007 5.00817 10.7915 5.54545 10.3607 5.95596C9.92967 6.36729 9.36298 6.57271 8.66043 6.57271H5.47862V2.11811Z" fill="black"/>
</svg>
