<svg width="55" height="55" viewBox="0 0 55 55" fill="none" xmlns="http://www.w3.org/2000/svg">
<g clip-path="url(#clip0)">
<path d="M54.9675 40.4258C54.7086 38.2786 54.5018 36.6855 54.3527 35.6909C53.8948 32.6368 51.5511 30.1518 48.382 29.3596L45.9606 28.7541C45.697 28.4576 45.6489 27.5724 45.7326 27.0496C46.1202 26.6722 46.4893 26.2252 46.8256 25.7554C48.1696 23.878 48.9405 21.4858 48.9405 19.1923C48.9405 14.5619 45.7067 11.3281 41.0763 11.3281C39.6723 11.3281 38.3982 11.6273 37.3025 12.171C36.2297 7.70994 32.4979 4.78052 27.4998 4.78052C22.5016 4.78052 18.7698 7.70994 17.697 12.171C16.6013 11.6273 15.3272 11.3281 13.9232 11.3281C9.29284 11.3281 6.05898 14.5619 6.05898 19.1923C6.05898 21.4856 6.8299 23.8778 8.17396 25.7554C8.51007 26.225 8.87915 26.6711 9.26655 27.0483C9.35062 27.5709 9.30266 28.4572 9.03914 28.7541L6.61786 29.3596C3.44863 30.1518 1.10475 32.6368 0.646979 35.6909C0.497906 36.6855 0.29087 38.2786 0.0321681 40.4258C-0.121535 41.6992 0.278278 42.9797 1.1292 43.9393C1.97993 44.8989 3.20344 45.4493 4.48621 45.4493H9.12803C9.27044 46.5247 9.7284 47.5456 10.461 48.3719C11.5019 49.5459 12.9993 50.2195 14.5687 50.2195H40.431C42.0004 50.2195 43.4976 49.5459 44.5387 48.3719C45.2713 47.5456 45.7293 46.5247 45.8717 45.4493H50.5135C51.7961 45.4493 53.0198 44.8989 53.8705 43.9393C54.7214 42.9797 55.1212 41.699 54.9675 40.4258ZM35.3269 25.7554C35.6632 26.2252 36.0323 26.6713 36.4197 27.0485C36.5038 27.5709 36.4558 28.4572 36.1925 28.7541L35.3425 28.9666L33.8334 28.5722C33.1256 27.9581 33.1229 26.1676 33.2384 25.467C33.6273 25.1015 34.0114 24.5708 34.3677 24.1291C34.6432 24.7006 34.9632 25.2472 35.3269 25.7554ZM27.4998 8.33568C30.5271 8.33568 34.0627 10.0546 34.0627 14.8986C34.0627 19.6137 30.812 24.2417 27.4998 24.2417C24.1876 24.2417 20.9368 19.6137 20.9368 14.8986C20.9368 10.0546 24.4724 8.33568 27.4998 8.33568ZM30.8633 30.5885C30.7834 32.3746 29.3053 33.8033 27.4998 33.8033C25.6942 33.8033 24.2161 32.3748 24.1363 30.5885C24.8913 29.6318 25.2107 28.4826 25.3285 27.4713C26.0357 27.6842 26.7622 27.7968 27.4999 27.7968C28.2377 27.7968 28.964 27.6842 29.6714 27.4713C29.7888 28.4826 30.1084 29.6316 30.8633 30.5885ZM18.5794 27.0498C18.967 26.6724 19.3363 26.2256 19.6726 25.7557C20.0363 25.2476 20.3563 24.7008 20.632 24.1293C20.9889 24.5713 21.3726 25.1017 21.762 25.4676C21.8776 26.1676 21.8742 27.9581 21.1665 28.5724L19.6574 28.9668L18.8072 28.7542C18.5439 28.4576 18.4957 27.5724 18.5794 27.0498ZM9.95877 37.6034C9.80932 38.6005 9.6171 40.0399 9.38562 41.8945H4.48621C4.12158 41.8945 3.89307 41.698 3.78918 41.5812C3.68529 41.464 3.51789 41.2138 3.5614 40.8516C3.8127 38.7677 4.02066 37.1655 4.1627 36.2179C4.40306 34.6146 5.7362 33.2442 7.48008 32.8083L8.75081 32.4905C9.14414 33.5255 9.84118 34.4101 10.7306 35.0411C10.3571 35.8457 10.0934 36.7051 9.95877 37.6034ZM9.61396 19.1925C9.61396 16.0154 11.84 14.8832 13.9232 14.8832C15.2574 14.8832 16.6495 15.349 17.4785 16.5178C17.6043 17.5964 17.8533 18.6721 18.2119 19.7108C17.992 22.6743 15.94 25.5306 13.9232 25.5306C11.7888 25.5306 9.61396 22.3319 9.61396 19.1925ZM11.9623 30.7839C12.3706 30.2102 12.6015 29.5692 12.7267 28.9592C13.1217 29.0428 13.5217 29.0855 13.9232 29.0855C14.3247 29.0855 14.7247 29.0428 15.1195 28.9592C15.2054 29.3776 15.3428 29.81 15.5513 30.2259C14.515 30.7242 13.5843 31.3757 12.7899 32.1485C12.3458 31.8363 12.0345 31.3474 11.9623 30.7839ZM41.8785 46.0136C41.5061 46.4334 40.9923 46.6647 40.4308 46.6647H14.5686C14.0073 46.6647 13.4932 46.4334 13.1208 46.0136C12.7486 45.5938 12.5806 45.0558 12.6478 44.4986C12.9928 41.6388 13.2786 39.4368 13.4745 38.1305C13.8428 35.6736 15.8671 33.5787 18.5111 32.9174L20.8444 32.334C21.6718 35.2307 24.3411 37.3581 27.4998 37.3581C30.6583 37.3581 33.3277 35.2307 34.1551 32.334L36.4882 32.9172C39.1326 33.5783 41.1567 35.6733 41.525 38.1303C41.7208 39.4366 42.0067 41.6386 42.3517 44.4984C42.4187 45.0558 42.2508 45.5939 41.8785 46.0136ZM42.2085 32.1476C41.4145 31.3753 40.4839 30.724 39.4482 30.2259C39.6567 29.8102 39.7941 29.3776 39.88 28.9592C40.2749 29.0428 40.6749 29.0855 41.0763 29.0855C41.4778 29.0855 41.8778 29.0428 42.2728 28.9592C42.3982 29.5692 42.6289 30.2103 43.0372 30.7839C42.965 31.3477 42.6532 31.8361 42.2085 32.1476ZM41.0763 25.5306C39.0595 25.5306 37.0075 22.6743 36.7877 19.7108C37.1464 18.6721 37.3954 17.5964 37.521 16.5178C38.3501 15.349 39.7419 14.8832 41.0763 14.8832C43.1595 14.8832 45.3856 16.0153 45.3856 19.1925C45.3856 22.3319 43.2108 25.5306 41.0763 25.5306ZM51.2103 41.5812C51.1064 41.6982 50.8781 41.8945 50.5133 41.8945H45.6139C45.3824 40.0401 45.1902 38.6005 45.0408 37.6034C44.9061 36.7053 44.6424 35.8459 44.2691 35.0414C45.1587 34.4109 45.8554 33.5257 46.2487 32.4907L47.5196 32.8085C49.2633 33.2444 50.5965 34.6146 50.8368 36.2181C50.9789 37.1657 51.1868 38.7679 51.4381 40.8517C51.4816 41.2136 51.314 41.464 51.2103 41.5812Z" fill="#0080C1"/>
</g>
<defs>
<clipPath id="clip0">
<rect width="55" height="55" fill="white"/>
</clipPath>
</defs>
</svg>
