<svg width="55" height="55" viewBox="0 0 55 55" fill="none" xmlns="http://www.w3.org/2000/svg">
<path d="M45.1707 7.00305C39.9604 6.06934 35.1623 3.22395 32.7659 1.61101C31.2002 0.55709 29.3793 0 27.4999 0C25.6204 0 23.7995 0.55709 22.2339 1.61101C19.8376 3.22395 15.0395 6.06944 9.8293 7.00315C6.7435 7.55605 4.50375 10.226 4.50375 13.3515V26.3183C4.50375 30.6019 5.70215 34.7777 8.06576 38.7297C9.91481 41.8214 12.4769 44.7762 15.6807 47.5122C21.0676 52.1125 26.4017 54.5114 26.6261 54.6112L27.4999 55L28.3739 54.6112C28.5983 54.5114 33.9324 52.1125 39.3193 47.5122C42.5229 44.7762 45.0851 41.8214 46.9342 38.7297C49.2978 34.7776 50.4962 30.6019 50.4962 26.3183V13.3514C50.4962 10.2259 48.2565 7.55595 45.1707 7.00305ZM46.1976 26.3181C46.1976 32.7044 42.9714 38.7119 36.6084 44.1742C32.9096 47.3494 29.1544 49.419 27.5 50.2589C23.6971 48.3267 8.80203 39.8889 8.80203 26.3183V13.3514C8.80203 12.3099 9.5529 11.4194 10.5875 11.234C16.5728 10.1614 21.9573 6.97845 24.6341 5.17677C25.4878 4.60217 26.4788 4.29838 27.4999 4.29838C28.5209 4.29838 29.5119 4.60217 30.3656 5.17688C33.0424 6.97855 38.4268 10.1615 44.4122 11.2342C45.4466 11.4196 46.1976 12.31 46.1976 13.3516V26.3181Z" fill="#0080C1"/>
<path d="M24.1714 31.6284L16.8259 24.7514L13.8881 27.8892L24.4484 37.7759L41.2466 18.939L38.0386 16.0782L24.1714 31.6284Z" fill="#0080C1"/>
</svg>
