<svg width="55" height="55" viewBox="0 0 55 55" fill="none" xmlns="http://www.w3.org/2000/svg">
<g clip-path="url(#clip0)">
<path d="M40.1042 55C31.8908 55 25.2083 48.3175 25.2083 40.1041C25.2083 31.8908 31.8908 25.2083 40.1042 25.2083C48.3175 25.2083 55 31.8908 55 40.1041C55 48.3175 48.3175 55 40.1042 55ZM40.1042 27.5C33.1535 27.5 27.5 33.1558 27.5 40.1041C27.5 47.0525 33.1535 52.7083 40.1042 52.7083C47.0548 52.7083 52.7083 47.0525 52.7083 40.1041C52.7083 33.1558 47.0548 27.5 40.1042 27.5Z" fill="#0080C1"/>
<path d="M37.8125 45.8333C37.51 45.8333 37.2167 45.7118 37.0013 45.4987L32.4179 40.9154C31.971 40.4685 31.971 39.7421 32.4179 39.2952C32.8648 38.8483 33.5913 38.8483 34.0381 39.2952L37.7552 43.0123L44.9694 34.7668C45.3865 34.2879 46.1106 34.2421 46.5873 34.6591C47.064 35.0762 47.1121 35.7981 46.695 36.2748L38.6742 45.4414C38.4656 45.6798 38.1654 45.8218 37.8492 45.8333C37.8377 45.8333 37.824 45.8333 37.8125 45.8333Z" fill="#0080C1"/>
<path d="M21.7708 48.125H5.72917C2.57125 48.125 0 45.556 0 42.3958V12.6042C0 9.44396 2.57125 6.875 5.72917 6.875H10.3125C10.945 6.875 11.4583 7.38833 11.4583 8.02083C11.4583 8.65333 10.945 9.16667 10.3125 9.16667H5.72917C3.83396 9.16667 2.29167 10.709 2.29167 12.6042V42.3958C2.29167 44.291 3.83396 45.8333 5.72917 45.8333H21.7708C22.4033 45.8333 22.9167 46.3467 22.9167 46.9792C22.9167 47.6117 22.4033 48.125 21.7708 48.125Z" fill="#0080C1"/>
<path d="M37.8125 20.625C37.18 20.625 36.6667 20.1117 36.6667 19.4792V12.6042C36.6667 10.709 35.1244 9.16667 33.2292 9.16667H28.6458C28.0133 9.16667 27.5 8.65333 27.5 8.02083C27.5 7.38833 28.0133 6.875 28.6458 6.875H33.2292C36.3871 6.875 38.9583 9.44396 38.9583 12.6042V19.4792C38.9583 20.1117 38.445 20.625 37.8125 20.625Z" fill="#0080C1"/>
<path d="M26.3542 13.75H12.6042C10.709 13.75 9.16667 12.2077 9.16667 10.3125V5.72917C9.16667 5.09667 9.68001 4.58333 10.3125 4.58333H13.8646C14.3985 1.97083 16.7108 0 19.4792 0C22.2475 0 24.5598 1.97083 25.0938 4.58333H28.6458C29.2783 4.58333 29.7917 5.09667 29.7917 5.72917V10.3125C29.7917 12.2077 28.2494 13.75 26.3542 13.75ZM11.4583 6.875V10.3125C11.4583 10.9427 11.9717 11.4583 12.6042 11.4583H26.3542C26.9867 11.4583 27.5 10.9427 27.5 10.3125V6.875H24.0625C23.43 6.875 22.9167 6.36167 22.9167 5.72917C22.9167 3.83396 21.3744 2.29167 19.4792 2.29167C17.584 2.29167 16.0417 3.83396 16.0417 5.72917C16.0417 6.36167 15.5283 6.875 14.8958 6.875H11.4583Z" fill="#0080C1"/>
<path d="M30.9375 20.625H8.02083C7.38833 20.625 6.875 20.1116 6.875 19.4791C6.875 18.8466 7.38833 18.3333 8.02083 18.3333H30.9375C31.57 18.3333 32.0833 18.8466 32.0833 19.4791C32.0833 20.1116 31.57 20.625 30.9375 20.625Z" fill="#0080C1"/>
<path d="M24.0625 27.5H8.02083C7.38833 27.5 6.875 26.9866 6.875 26.3541C6.875 25.7216 7.38833 25.2083 8.02083 25.2083H24.0625C24.695 25.2083 25.2083 25.7216 25.2083 26.3541C25.2083 26.9866 24.695 27.5 24.0625 27.5Z" fill="#0080C1"/>
<path d="M19.4792 34.375H8.02083C7.38833 34.375 6.875 33.8616 6.875 33.2291C6.875 32.5966 7.38833 32.0833 8.02083 32.0833H19.4792C20.1117 32.0833 20.625 32.5966 20.625 33.2291C20.625 33.8616 20.1117 34.375 19.4792 34.375Z" fill="#0080C1"/>
</g>
<defs>
<clipPath id="clip0">
<rect width="55" height="55" fill="white"/>
</clipPath>
</defs>
</svg>
