<svg width="131" height="131" viewBox="0 0 131 131" fill="none" xmlns="http://www.w3.org/2000/svg">
<path d="M65.5 0C29.3811 0 0 29.3811 0 65.5C0 101.619 29.3811 131 65.5 131C101.619 131 131 101.614 131 65.5C131 29.3862 101.619 0 65.5 0ZM65.5 120.853C34.9824 120.853 10.1471 96.0227 10.1471 65.5C10.1471 34.9773 34.9824 10.1471 65.5 10.1471C96.0227 10.1471 120.853 34.9773 120.853 65.5C120.853 96.0227 96.0176 120.853 65.5 120.853Z" fill="#40C575"/>
<path d="M95.5512 42.7196C93.4862 40.8423 90.2746 40.9894 88.3874 43.0645L57.4384 77.1439L42.4865 61.9436C40.5128 59.9445 37.3064 59.9141 35.3124 61.8827C33.3134 63.8461 33.283 67.0577 35.2515 69.0567L53.9679 88.0827C54.9269 89.0567 56.2256 89.5997 57.5853 89.5997C57.6157 89.5997 57.6513 89.5997 57.6817 89.6048C59.082 89.5743 60.4012 88.9756 61.3397 87.9407L95.8959 49.8887C97.7785 47.8083 97.6262 44.6019 95.5512 42.7196Z" fill="#40C575"/>
</svg>
