<svg width="19" height="19" viewBox="0 0 19 19" fill="none" xmlns="http://www.w3.org/2000/svg">
<g clip-path="url(#clip0)">
<path d="M15.766 10.3138C15.4589 9.92583 15.5468 9.75325 15.766 9.4065C15.77 9.40254 18.3057 5.89863 18.567 4.71034L18.5685 4.70954C18.6984 4.2765 18.5685 3.95825 17.9408 3.95825H15.8634C15.3346 3.95825 15.0907 4.23138 14.9601 4.53696C14.9601 4.53696 13.9025 7.06871 12.4062 8.70984C11.9233 9.18404 11.7 9.33604 11.4364 9.33604C11.3066 9.33604 11.1047 9.18404 11.1047 8.751V4.70954C11.1047 4.19021 10.9567 3.95825 10.5189 3.95825H7.25246C6.92075 3.95825 6.72363 4.2005 6.72363 4.42613C6.72363 4.91854 7.47175 5.03175 7.54933 6.41717V9.42313C7.54933 10.0818 7.42979 10.2029 7.16458 10.2029C6.45842 10.2029 4.74446 7.66088 3.72875 4.7515C3.52371 4.18704 3.32342 3.95904 2.79063 3.95904H0.7125C0.119542 3.95904 0 4.23217 0 4.53775C0 5.07767 0.706166 7.76221 3.28383 11.3089C5.00175 13.7298 7.42108 15.0416 9.62192 15.0416C10.9448 15.0416 11.1063 14.7503 11.1063 14.2491C11.1063 11.9359 10.9868 11.7174 11.6494 11.7174C11.9565 11.7174 12.4854 11.8694 13.7204 13.0371C15.1319 14.4217 15.3639 15.0416 16.154 15.0416H18.2313C18.8235 15.0416 19.1235 14.7503 18.9509 14.1755C18.5559 12.9666 15.8864 10.48 15.766 10.3138Z" fill="black"/>
</g>
<defs>
<clipPath id="clip0">
<rect width="19" height="19" fill="white"/>
</clipPath>
</defs>
</svg>
